<mxfile host="app.diagrams.net" modified="2021-08-04T01:26:51.166Z" agent="5.0 (Windows NT 10.0; Win64; x64) AppleWebKit/537.36 (KHTML, like Gecko) Chrome/90.0.4430.72 Safari/537.36" etag="P7CpojYl5IMSsBTQ1VRO" version="14.8.4" type="github">
  <diagram id="GiNqI1wSQbVntb9f-Yv_" name="第 1 页">
    <mxGraphModel dx="1422" dy="762" grid="1" gridSize="10" guides="1" tooltips="1" connect="1" arrows="1" fold="1" page="1" pageScale="1" pageWidth="1169" pageHeight="827" math="0" shadow="0">
      <root>
        <mxCell id="0" />
        <mxCell id="1" parent="0" />
        <mxCell id="pEwsT94KwdNvJjBN8cpX-1" value="cvtToStr/cvtToHex 使用 sstream - ostringstream实现安全自动的类型转换" style="text;html=1;strokeColor=none;fillColor=none;align=left;verticalAlign=middle;whiteSpace=wrap;rounded=0;" vertex="1" parent="1">
          <mxGeometry x="60" y="30" width="470" height="80" as="geometry" />
        </mxCell>
      </root>
    </mxGraphModel>
  </diagram>
</mxfile>
